<svg xmlns="http://www.w3.org/2000/svg" width="42.001" height="29.413" viewBox="0 0 42.001 29.413">
    <defs>
        <style>
            .cls-1{fill:#758ca3}
        </style>
    </defs>
    <path id="Deep_Icon" d="M11661.344 886.411a2.561 2.561 0 0 1-2.351-1.553l-.131-.309h-3.3a11.57 11.57 0 0 1-8.949-4.239 11.974 11.974 0 0 1-2.616-7.624V857.6a.6.6 0 0 1 1.2 0v15.39a10.271 10.271 0 0 0 3.358 7.646 10.759 10.759 0 0 0 7.332 2.725h2.933l.12-.342a2.554 2.554 0 0 1 2.4-1.72h7.147a2.557 2.557 0 0 1 2.4 1.72l.121.342h3.1a10.756 10.756 0 0 0 7.331-2.725 10.267 10.267 0 0 0 3.357-7.646V857.6a.6.6 0 0 1 1.2 0v15.089a11.973 11.973 0 0 1-2.613 7.626 11.59 11.59 0 0 1-8.952 4.239h-3.463l-.135.309a2.556 2.556 0 0 1-2.351 1.553zm6.209-10.666a7.96 7.96 0 0 1-2.483-2.774h-.3a8.005 8.005 0 0 1-2.482 2.774 7.937 7.937 0 1 1-4.514-14.467h14.291a7.937 7.937 0 1 1-4.511 14.467zm-2.382-4.639a1.87 1.87 0 0 1 1.544.98 6.071 6.071 0 1 0 5.349-8.941h-14.291a6.07 6.07 0 1 0 5.35 8.941 1.872 1.872 0 0 1 1.542-.98c.082-.005.165-.005.254-.005s.173-.001.252.006z" class="cls-1" data-name="Deep Icon" transform="translate(-11643.999 -856.999)"/>
</svg>
