<svg xmlns="http://www.w3.org/2000/svg" width="42" height="37.935" viewBox="0 0 42 37.935">
    <defs>
        <style>
            .cls-1{fill:#758ca3}
        </style>
    </defs>
    <path id="Freeze_Icon" d="M18.475 41.935a.675.675 0 0 1-.583-.329L14.9 36.612 12.426 40.9a.677.677 0 0 1-.926.247.676.676 0 0 1-.247-.924l2.472-4.283-5.822-.1a.677.677 0 0 1 .012-1.355l6.585.108 3.147-5.452-3.381 1.54a.672.672 0 0 1-.278.061.678.678 0 0 1-.282-1.295l5.106-2.322 1.274-2.2-.262-.358a2.712 2.712 0 0 1-.3-.514l-.177-.406H16.8l-4.565 3.261a.67.67 0 0 1-.393.126.679.679 0 0 1-.552-.283.676.676 0 0 1 .157-.945l3.02-2.159H8.173L4.98 29.394a.681.681 0 0 1-.594.349.673.673 0 0 1-.328-.085.681.681 0 0 1-.348-.594.665.665 0 0 1 .085-.327l2.828-5.091H1.677a.677.677 0 1 1 0-1.355h4.946L3.8 17.2a.677.677 0 0 1 .264-.921.663.663 0 0 1 .328-.085.679.679 0 0 1 .593.349l3.188 5.747h6.293l-3.02-2.158a.676.676 0 0 1-.157-.944.676.676 0 0 1 .945-.158l4.566 3.26h2.543l.178-.406a2.683 2.683 0 0 1 .3-.515l.262-.357-1.274-2.2-5.106-2.323a.677.677 0 0 1-.337-.9.682.682 0 0 1 .618-.4.667.667 0 0 1 .279.062l3.38 1.538-3.143-5.446-6.575.109A.678.678 0 1 1 7.9 10.1l5.822-.1-2.47-4.282a.678.678 0 1 1 1.174-.677L14.9 9.324l2.994-4.995a.677.677 0 0 1 1.162.7l-3.381 5.639 3.147 5.451.358-3.7a.675.675 0 0 1 .674-.612.691.691 0 0 1 .674.744l-.541 5.583 1.277 2.207.562-.067a1.351 1.351 0 0 1 .174-.016 1.288 1.288 0 0 1 .171.017l.566.065 1.276-2.2-.543-5.584a.678.678 0 0 1 .608-.74h.068a.675.675 0 0 1 .673.612l.359 3.695 3.147-5.45-3.38-5.647a.677.677 0 1 1 1.162-.7L29.1 9.323l2.475-4.283a.681.681 0 0 1 .587-.339.667.667 0 0 1 .338.091.678.678 0 0 1 .247.926L30.275 10l5.823.1a.677.677 0 0 1-.012 1.355l-6.586-.112-3.146 5.451 3.38-1.538a.677.677 0 0 1 .56 1.234l-5.106 2.323-1.277 2.2.266.358a2.6 2.6 0 0 1 .3.512l.178.406H27.2l4.565-3.261a.667.667 0 0 1 .392-.126.677.677 0 0 1 .394 1.229l-3.02 2.158h6.293l3.193-5.749a.679.679 0 0 1 .593-.349.67.67 0 0 1 .327.085.679.679 0 0 1 .263.922l-2.827 5.09h4.945a.677.677 0 0 1 0 1.355h-4.941l2.823 5.093a.678.678 0 0 1-.264.921.665.665 0 0 1-.328.085.677.677 0 0 1-.592-.349l-3.194-5.749h-6.286l3.019 2.16a.677.677 0 1 1-.786 1.1L27.2 23.646h-2.54l-.179.4a2.7 2.7 0 0 1-.3.514l-.265.358 1.276 2.2 5.106 2.322a.678.678 0 1 1-.561 1.234l-3.381-1.539 3.144 5.457 6.576-.108a.678.678 0 0 1 .022 1.355l-5.822.095 2.473 4.284a.677.677 0 0 1-.248.925.663.663 0 0 1-.337.091.684.684 0 0 1-.589-.339L29.1 36.612l-2.994 5a.678.678 0 0 1-1.162-.7l3.381-5.638-3.145-5.454-.359 3.7a.677.677 0 0 1-.675.613.693.693 0 0 1-.675-.744l.543-5.584-1.277-2.206-.565.065a1.32 1.32 0 0 1-.173.018 1.279 1.279 0 0 1-.17-.017l-.569-.063-1.275 2.2.541 5.585a.677.677 0 0 1-.608.74h-.007a.69.69 0 0 1-.733-.61l-.358-3.7-3.146 5.453 3.381 5.639a.678.678 0 0 1-.579 1.026z" class="cls-1" transform="translate(-1 -4)"/>
</svg>
