<svg xmlns="http://www.w3.org/2000/svg" width="15" height="15" viewBox="0 0 15 15">
    <defs>
        <style>
            .cls-1{fill:#fff}
        </style>
    </defs>
    <path id="Instagram_Logo" d="M4.468 15A4.474 4.474 0 0 1 0 10.532V4.469A4.473 4.473 0 0 1 4.468 0h6.063A4.474 4.474 0 0 1 15 4.469v6.063A4.474 4.474 0 0 1 10.531 15zM1.509 4.469v6.063a2.96 2.96 0 0 0 2.96 2.96h6.063a2.96 2.96 0 0 0 2.96-2.96V4.469a2.96 2.96 0 0 0-2.96-2.96H4.468a2.96 2.96 0 0 0-2.959 2.96zM3.62 7.5a3.879 3.879 0 1 1 3.88 3.88A3.884 3.884 0 0 1 3.62 7.5zm1.509 0A2.371 2.371 0 1 0 7.5 5.13 2.371 2.371 0 0 0 5.129 7.5zm5.328-3.85a.93.93 0 1 1 .93.929.93.93 0 0 1-.93-.929z" class="cls-1"/>
</svg>
