<svg xmlns="http://www.w3.org/2000/svg" width="13" height="12.331" viewBox="0 0 13 12.331">
    <defs>
        <style>
            .cls-1{fill:#fff}
        </style>
    </defs>
    <path id="Linkedin_Logo" d="M4.493 12.331s.036-7.539 0-8.321h2.785v1.178a2.778 2.778 0 0 1 2.514-1.374C11.624 3.814 13 5 13 7.56v4.769h-2.787v-4.45C10.213 6.76 9.809 6 8.8 6a1.521 1.521 0 0 0-1.43 1.009 1.854 1.854 0 0 0-.093.674v4.648zm-4.33 0V4.01H2.95v8.318zm1.376-9.456A1.442 1.442 0 1 1 1.575 0a1.443 1.443 0 1 1-.018 2.875z" class="cls-1"/>
</svg>
