<svg xmlns="http://www.w3.org/2000/svg" xmlns:xlink="http://www.w3.org/1999/xlink" width="150" height="43.666" viewBox="0 0 150 43.666">
    <defs>
        <style>
            .cls-1{fill:#fff}.cls-2{fill:url(#linear-gradient)}.cls-3{fill:url(#linear-gradient-2)}.cls-4{fill:url(#linear-gradient-3)}.cls-5{fill:url(#linear-gradient-4)}.cls-6{fill:url(#linear-gradient-5)}.cls-7{fill:url(#linear-gradient-6)}.cls-8{fill:url(#linear-gradient-7)}.cls-9{fill:url(#linear-gradient-8)}
        </style>
        <linearGradient id="linear-gradient" x1=".042" x2=".906" y1=".956" y2=".044" gradientUnits="objectBoundingBox">
            <stop offset="0" stop-color="#0a93eb"/>
            <stop offset="1" stop-color="#00387c"/>
        </linearGradient>
        <linearGradient id="linear-gradient-2" x1=".945" x2=".084" y1=".993" y2=".054" gradientUnits="objectBoundingBox">
            <stop offset="0" stop-color="#00387c"/>
            <stop offset="1" stop-color="#0a93eb"/>
        </linearGradient>
        <linearGradient id="linear-gradient-3" x1=".112" x2=".973" y1=".936" y2=".028" xlink:href="#linear-gradient-2"/>
        <linearGradient id="linear-gradient-4" x1=".052" x2=".919" y1=".004" y2=".949" xlink:href="#linear-gradient-2"/>
        <linearGradient id="linear-gradient-5" x1=".029" x2=".945" y1=".026" y2=".896" xlink:href="#linear-gradient"/>
        <linearGradient id="linear-gradient-6" x1=".008" x2=".948" y1=".944" y2=".082" xlink:href="#linear-gradient-2"/>
        <linearGradient id="linear-gradient-7" x1=".039" x2=".959" y1=".089" y2=".961" xlink:href="#linear-gradient-2"/>
        <linearGradient id="linear-gradient-8" x1=".04" x2=".979" y1=".929" y2=".068" xlink:href="#linear-gradient"/>
    </defs>
    <g id="Logo" transform="translate(-837.001 -29)">
        <path id="Title" d="M3.355 1.78a2.66 2.66 0 0 1-1.98-.759A2.744 2.744 0 0 1 .624-1v-5.443a2.718 2.718 0 0 1 .751-2.01 2.675 2.675 0 0 1 1.98-.747 2.7 2.7 0 0 1 1.995.752 2.718 2.718 0 0 1 .75 2.005v.243a.135.135 0 0 1-.152.153L4.8-5.982a.135.135 0 0 1-.152-.153v-.4a1.428 1.428 0 0 0-.356-1.013 1.214 1.214 0 0 0-.933-.384 1.191 1.191 0 0 0-.925.384 1.446 1.446 0 0 0-.354 1.013v5.646A1.447 1.447 0 0 0 2.429.123a1.191 1.191 0 0 0 .925.384 1.214 1.214 0 0 0 .933-.384 1.428 1.428 0 0 0 .357-1.012v-.4a.135.135 0 0 1 .156-.152l1.153.061a.135.135 0 0 1 .152.153V-1a2.744 2.744 0 0 1-.751 2.017 2.68 2.68 0 0 1-1.999.763zm8.556-.123a.177.177 0 0 1-.182-.123l-1.4-4.572a.06.06 0 0 0-.061-.046H9.21a.054.054 0 0 0-.061.061V1.5A.135.135 0 0 1 9 1.658H7.845a.135.135 0 0 1-.152-.158V-8.928a.135.135 0 0 1 .152-.153h2.715a2.454 2.454 0 0 1 1.365.384 2.528 2.528 0 0 1 .918 1.082 3.709 3.709 0 0 1 .326 1.588 3.418 3.418 0 0 1-.394 1.68A2.376 2.376 0 0 1 11.7-3.313a.088.088 0 0 0-.03.092l1.547 4.71.015.061q0 .107-.137.107zM9.21-7.808a.054.054 0 0 0-.061.061v3.437a.054.054 0 0 0 .061.061h1.123a1.21 1.21 0 0 0 1-.483 2.017 2.017 0 0 0 .379-1.281 2.07 2.07 0 0 0-.379-1.312 1.21 1.21 0 0 0-1-.483zm6.933 9.45a.135.135 0 0 1-.152-.153V-2.9l-.015-.077-2.109-5.936-.015-.061q0-.107.137-.107H15.2a.177.177 0 0 1 .182.123l1.289 4.234a.049.049 0 0 0 .046.031.049.049 0 0 0 .046-.031l1.289-4.234a.177.177 0 0 1 .182-.123h1.216q.167 0 .121.169l-2.109 5.937-.015.077v4.387a.135.135 0 0 1-.152.153zM23.606-9.1a2.355 2.355 0 0 1 1.889.851 3.338 3.338 0 0 1 .721 2.232 3.268 3.268 0 0 1-.7 2.178 2.283 2.283 0 0 1-1.836.828h-1.424a.054.054 0 0 0-.061.061V1.5a.135.135 0 0 1-.152.153h-1.152a.135.135 0 0 1-.152-.153V-8.943a.135.135 0 0 1 .152-.153zm-.228 4.909a1.21 1.21 0 0 0 1-.483 2.07 2.07 0 0 0 .379-1.312 2.164 2.164 0 0 0-.379-1.342 1.2 1.2 0 0 0-1-.5h-1.122a.054.054 0 0 0-.061.061v3.513a.054.054 0 0 0 .061.061zm9.329-4.894a.135.135 0 0 1 .152.153v.966a.135.135 0 0 1-.152.153h-1.986a.054.054 0 0 0-.061.061V1.5a.135.135 0 0 1-.152.153h-1.153A.135.135 0 0 1 29.2 1.5v-9.247a.054.054 0 0 0-.061-.061h-1.877a.135.135 0 0 1-.152-.153v-.966a.135.135 0 0 1 .152-.153zM36.394 1.78a2.69 2.69 0 0 1-2-.767 2.775 2.775 0 0 1-.758-2.04v-5.354a2.8 2.8 0 0 1 .758-2.048 2.676 2.676 0 0 1 2-.775 2.721 2.721 0 0 1 2.025.775 2.786 2.786 0 0 1 .766 2.048v5.354a2.76 2.76 0 0 1-.766 2.04 2.736 2.736 0 0 1-2.025.767zm0-1.273A1.239 1.239 0 0 0 37.365.1a1.538 1.538 0 0 0 .364-1.066v-5.492a1.538 1.538 0 0 0-.364-1.066 1.239 1.239 0 0 0-.971-.407 1.2 1.2 0 0 0-.948.407 1.558 1.558 0 0 0-.356 1.066v5.492A1.558 1.558 0 0 0 35.446.1a1.2 1.2 0 0 0 .948.407zM48.97-7.961a.135.135 0 0 1-.152.153H45.4a.054.054 0 0 0-.061.061v3.329a.054.054 0 0 0 .061.061h2.1a.135.135 0 0 1 .152.153v.966a.135.135 0 0 1-.152.153h-2.1a.054.054 0 0 0-.061.061V.323a.054.054 0 0 0 .061.061h3.413a.135.135 0 0 1 .152.153V1.5a.135.135 0 0 1-.152.153H44.04a.135.135 0 0 1-.152-.153V-8.928a.135.135 0 0 1 .152-.153h4.778a.135.135 0 0 1 .152.153zm1.168 9.619a.126.126 0 0 1-.121-.184l2.109-5.139a.077.077 0 0 0 0-.092L50.017-8.9 50-8.959q0-.123.137-.123h1.183a.167.167 0 0 1 .167.123l1.38 3.7q.015.046.046.046t.046-.046l1.365-3.7a.167.167 0 0 1 .167-.123h1.183a.13.13 0 0 1 .114.054.131.131 0 0 1 .008.13l-2.108 5.155a.143.143 0 0 0 0 .092L55.8 1.473l.015.061q0 .123-.137.123h-1.171a.167.167 0 0 1-.167-.123l-1.38-3.682q-.015-.046-.046-.046t-.046.046l-1.38 3.682a.167.167 0 0 1-.167.123zm9.481.123a2.66 2.66 0 0 1-1.98-.759A2.744 2.744 0 0 1 56.888-1v-5.443a2.718 2.718 0 0 1 .751-2.01 2.675 2.675 0 0 1 1.98-.752 2.7 2.7 0 0 1 1.995.752 2.718 2.718 0 0 1 .751 2.01v.243a.135.135 0 0 1-.152.153l-1.153.061a.135.135 0 0 1-.152-.153v-.4a1.428 1.428 0 0 0-.356-1.013 1.214 1.214 0 0 0-.933-.384 1.191 1.191 0 0 0-.925.384 1.447 1.447 0 0 0-.349 1.013v5.65a1.447 1.447 0 0 0 .349 1.012 1.191 1.191 0 0 0 .925.384 1.214 1.214 0 0 0 .933-.384 1.428 1.428 0 0 0 .356-1.013v-.4a.135.135 0 0 1 .152-.153l1.153.061a.135.135 0 0 1 .152.153V-1a2.744 2.744 0 0 1-.751 2.017 2.68 2.68 0 0 1-1.995.763zm8.207-10.709a.135.135 0 0 1 .152-.153h1.152a.135.135 0 0 1 .152.153V1.5a.135.135 0 0 1-.152.153h-1.153a.135.135 0 0 1-.152-.153v-4.522a.054.054 0 0 0-.061-.061h-2.29a.054.054 0 0 0-.061.061V1.5a.135.135 0 0 1-.152.153h-1.152a.135.135 0 0 1-.152-.153V-8.928a.135.135 0 0 1 .152-.153h1.153a.135.135 0 0 1 .152.153v4.51a.054.054 0 0 0 .061.061h2.291a.054.054 0 0 0 .061-.061zM75.32 1.658a.156.156 0 0 1-.167-.138l-.334-1.765a.052.052 0 0 0-.019-.046.093.093 0 0 0-.053-.015H72.27a.093.093 0 0 0-.053.015.052.052 0 0 0-.023.046l-.319 1.764a.145.145 0 0 1-.167.138h-1.152a.139.139 0 0 1-.114-.046.141.141 0 0 1-.023-.123L72.68-8.943a.156.156 0 0 1 .167-.138H74.2a.145.145 0 0 1 .167.138l2.272 10.432v.031a.121.121 0 0 1-.137.138zm-2.868-3.191q0 .061.046.061h2.018q.046 0 .046-.061L73.53-6.98q-.015-.031-.03-.031t-.03.031zm9.6-7.394a.135.135 0 0 1 .152-.153h1.138a.135.135 0 0 1 .152.153V1.5a.135.135 0 0 1-.152.153h-1.3a.167.167 0 0 1-.167-.123l-2.581-7.006a.037.037 0 0 0-.046-.023.036.036 0 0 0-.03.038l.015 6.961a.135.135 0 0 1-.152.153h-1.152a.135.135 0 0 1-.152-.153V-8.928a.135.135 0 0 1 .152-.153h1.289a.167.167 0 0 1 .167.123l2.594 7.011q.015.046.046.038t.03-.054zM87.9 1.78a2.706 2.706 0 0 1-1.98-.736A2.606 2.606 0 0 1 85.165-.9v-5.619a2.606 2.606 0 0 1 .751-1.948A2.706 2.706 0 0 1 87.9-9.2a2.732 2.732 0 0 1 1.987.736 2.611 2.611 0 0 1 .754 1.964v.644a.135.135 0 0 1-.152.153h-1.153a.135.135 0 0 1-.152-.153v-.675a1.428 1.428 0 0 0-.356-1.013 1.214 1.214 0 0 0-.933-.384 1.214 1.214 0 0 0-.933.384 1.428 1.428 0 0 0-.356 1.013v5.642a1.428 1.428 0 0 0 .356 1.012 1.214 1.214 0 0 0 .938.384 1.214 1.214 0 0 0 .933-.384 1.428 1.428 0 0 0 .356-1.013v-1.687a.054.054 0 0 0-.061-.061h-1.157a.135.135 0 0 1-.152-.153v-.951a.135.135 0 0 1 .152-.153h2.518a.135.135 0 0 1 .152.153V-.9a2.592 2.592 0 0 1-.758 1.948 2.732 2.732 0 0 1-1.983.732zm9.5-9.742a.135.135 0 0 1-.152.153h-3.421a.054.054 0 0 0-.061.061v3.329a.054.054 0 0 0 .061.061h2.093a.135.135 0 0 1 .152.153v.966a.135.135 0 0 1-.152.153h-2.093a.054.054 0 0 0-.061.061V.323a.054.054 0 0 0 .061.061h3.413a.135.135 0 0 1 .152.153V1.5a.135.135 0 0 1-.152.153h-4.779a.135.135 0 0 1-.151-.153V-8.928a.135.135 0 0 1 .152-.153h4.778a.135.135 0 0 1 .152.153z" class="cls-1" transform="translate(889.48 70.366)"/>
        <path id="Type" d="M2.724 3.825a.313.313 0 0 1-.354-.354V-20.6a.313.313 0 0 1 .354-.354h1.168a.313.313 0 0 1 .354.354V3.471a.313.313 0 0 1-.354.354zm12.816.283A5.556 5.556 0 0 1 11.38 2.5 5.887 5.887 0 0 1 9.8-1.8v-13.6a5.778 5.778 0 0 1 1.575-4.248 5.589 5.589 0 0 1 4.16-1.593 5.635 5.635 0 0 1 4.2 1.593A5.778 5.778 0 0 1 21.31-15.4v.673a.383.383 0 0 1-.106.283.34.34 0 0 1-.248.106l-1.168.071a.313.313 0 0 1-.354-.354v-.879a4.109 4.109 0 0 0-1.062-2.956 3.728 3.728 0 0 0-2.832-1.115 3.684 3.684 0 0 0-2.8 1.115 4.109 4.109 0 0 0-1.059 2.956v13.838a4.172 4.172 0 0 0 1.062 2.974 3.655 3.655 0 0 0 2.8 1.133 3.712 3.712 0 0 0 2.815-1.133 4.132 4.132 0 0 0 1.08-2.974v-.814a.313.313 0 0 1 .354-.354l1.168.071a.313.313 0 0 1 .354.354v.6a5.887 5.887 0 0 1-1.575 4.3 5.6 5.6 0 0 1-4.199 1.613zm21.1-.283a.413.413 0 0 1-.425-.283L32.321-7.681a.139.139 0 0 0-.142-.106h-3.5a.125.125 0 0 0-.142.142V3.471a.313.313 0 0 1-.354.354H27.01a.313.313 0 0 1-.354-.354V-20.6a.313.313 0 0 1 .354-.354h5.49a4.938 4.938 0 0 1 4 1.841 7.31 7.31 0 0 1 1.521 4.813 7.541 7.541 0 0 1-1.027 4.036A5.17 5.17 0 0 1 34.2-8a.129.129 0 0 0-.106.177l4 11.258.035.142q0 .248-.319.248zm-7.966-23.118a.125.125 0 0 0-.142.142v9.665a.125.125 0 0 0 .142.142h3.611a3.374 3.374 0 0 0 2.8-1.363 5.684 5.684 0 0 0 1.059-3.593 5.745 5.745 0 0 0-1.062-3.629 3.374 3.374 0 0 0-2.8-1.363zM46.34 3.825a.313.313 0 0 1-.354-.354V-7.5a.28.28 0 0 0-.035-.177l-4.886-12.855-.035-.142q0-.283.319-.283h1.239a.413.413 0 0 1 .425.283L46.836-9.84a.113.113 0 0 0 .106.071.113.113 0 0 0 .106-.071l3.788-10.833a.413.413 0 0 1 .425-.283H52.5a.3.3 0 0 1 .266.124.3.3 0 0 1 .018.3L47.9-7.681a.28.28 0 0 0-.035.177V3.471a.313.313 0 0 1-.354.354zm16.25-24.853a4.92 4.92 0 0 1 4 1.859 7.438 7.438 0 0 1 1.523 4.869 7.28 7.28 0 0 1-1.5 4.815 4.889 4.889 0 0 1-3.947 1.806h-3.93a.125.125 0 0 0-.142.142V3.471a.313.313 0 0 1-.354.354h-1.173a.313.313 0 0 1-.354-.354v-24.145a.313.313 0 0 1 .354-.354zm-.212 11.789a3.359 3.359 0 0 0 2.8-1.381 5.821 5.821 0 0 0 1.062-3.646 5.883 5.883 0 0 0-1.062-3.682 3.359 3.359 0 0 0-2.8-1.381h-3.647a.125.125 0 0 0-.142.142v9.807a.125.125 0 0 0 .142.142zm21.17-10.408a.313.313 0 0 1-.354.354H74.8a.125.125 0 0 0-.142.142v9.594a.125.125 0 0 0 .142.142h5.381a.313.313 0 0 1 .354.354v.956a.313.313 0 0 1-.354.354H74.8a.125.125 0 0 0-.142.142V2.02a.125.125 0 0 0 .142.142h8.39a.313.313 0 0 1 .354.354v.956a.313.313 0 0 1-.354.354H73.14a.313.313 0 0 1-.354-.354V-20.6a.313.313 0 0 1 .354-.354h10.054a.313.313 0 0 1 .354.354zm3.895 23.472a.3.3 0 0 1-.266-.124.3.3 0 0 1-.018-.3L92.187-8.46a.177.177 0 0 0 0-.212l-5.027-11.86-.035-.142q0-.283.319-.283h1.275a.389.389 0 0 1 .389.283l4 10.09q.035.106.106.106t.106-.106l4-10.09a.389.389 0 0 1 .389-.283h1.239a.3.3 0 0 1 .266.124.3.3 0 0 1 .018.3L94.2-8.637a.328.328 0 0 0 0 .212L99.232 3.4l.035.142q0 .283-.319.283H97.71a.389.389 0 0 1-.389-.283l-4-10.054q-.035-.106-.106-.089a.158.158 0 0 0-.106.089L89.071 3.542a.389.389 0 0 1-.389.283z" class="cls-1" transform="translate(887.734 53.497)"/>
        <g id="Symbol" transform="translate(837.001 29)">
            <path id="Path" d="M788.535 555.392a1.748 1.748 0 0 0-2.473 0l-9.573 9.576a1.746 1.746 0 1 0 2.469 2.469l10.8-10.8a.017.017 0 0 0 0-.024z" class="cls-2" transform="translate(-767.833 -528.092)"/>
            <path id="Path-2" d="M827.365 563.957l-15.808-15.814a1.762 1.762 0 0 0-2.493 0l-2.221 2.222a.016.016 0 0 0 .021.024 1.746 1.746 0 0 1 2.212.212l15.757 15.762a1.806 1.806 0 0 0 2.416.17 1.747 1.747 0 0 0 .116-2.576z" class="cls-3" data-name="Path" transform="translate(-788.419 -523.253)"/>
            <path id="Path-3" d="M818.261 498.431a1.749 1.749 0 0 0 2.474-.005l9.578-9.582a1.746 1.746 0 1 0-2.468-2.469l-10.806 10.81a.017.017 0 0 0 0 .024z" class="cls-4" data-name="Path" transform="translate(-795.22 -482.06)"/>
            <path id="Path-4" d="M764.925 477.415l15.808 15.814a1.762 1.762 0 0 0 2.493 0l2.221-2.222a.016.016 0 0 0-.021-.024 1.746 1.746 0 0 1-2.212-.212l-15.757-15.762a1.806 1.806 0 0 0-2.416-.17 1.747 1.747 0 0 0-.116 2.576z" class="cls-5" data-name="Path" transform="translate(-760.121 -474.453)"/>
            <path id="Path-5" d="M775.471 511.312a1.764 1.764 0 0 0 0-2.494l-9.5-9.5a1.807 1.807 0 0 0-2.418-.17 1.749 1.749 0 0 0-.111 2.579l10.8 10.8a.017.017 0 0 0 .024 0z" class="cls-6" data-name="Path" transform="translate(-759.129 -490.661)"/>
            <path id="Path-6" d="M754.482 550.105l15.808-15.814a1.764 1.764 0 0 0 0-2.493l-2.221-2.221a.016.016 0 0 0-.023.021 1.747 1.747 0 0 1-.212 2.213l-15.757 15.762a1.807 1.807 0 0 0-.169 2.417 1.745 1.745 0 0 0 2.574.115z" class="cls-7" data-name="Path" transform="translate(-751.521 -511.211)"/>
            <path id="Path-7" d="M832.511 541.362a1.751 1.751 0 0 0 .007 2.476l9.591 9.594a1.746 1.746 0 1 0 2.468-2.47l-10.82-10.824a.017.017 0 0 0-.024 0z" class="cls-8" data-name="Path" transform="translate(-805.205 -518.256)"/>
            <path id="Path-8" d="M841.059 488l-15.808 15.814a1.764 1.764 0 0 0 0 2.494l2.221 2.221a.016.016 0 0 0 .024-.021 1.747 1.747 0 0 1 .212-2.213l15.757-15.762a1.807 1.807 0 0 0 .169-2.417 1.745 1.745 0 0 0-2.575-.116z" class="cls-9" data-name="Path" transform="translate(-800.357 -483.146)"/>
        </g>
    </g>
</svg>
